<svg preserveAspectRatio="none" overflow="visible" style="display: block;" width="16.0036" height="16.0036" viewBox="0 0 16.0036 16.0036" fill="none" xmlns="http://www.w3.org/2000/svg">
<path id="Vector" d="M2.25924 10.8554L10.9444 10.3305L9.60038 8.00262L13.9444 5.49462L5.20322 5.92252L6.60322 8.34739L2.25924 10.8554ZM14.93 4.0018C16.03 5.90706 16.2772 7.93518 15.7062 10.0662C15.1352 12.1972 13.9071 13.83 12.0018 14.93C10.0965 16.03 8.06841 16.2772 5.93742 15.7062C3.80642 15.1352 2.1736 13.9071 1.0736 12.0018C-0.0264047 10.0965 -0.273584 8.06841 0.297416 5.93741C0.868416 3.80642 2.09654 2.1736 4.0018 1.0736C5.90705 -0.0264042 7.93518 -0.273584 10.0662 0.297416C12.1972 0.868415 13.83 2.09654 14.93 4.0018Z" fill="#DB5B13"/>
</svg>
