<svg preserveAspectRatio="none" overflow="visible" style="display: block;" width="54" height="51" viewBox="0 0 54 51" fill="none" xmlns="http://www.w3.org/2000/svg">
<g id="Isolation_Mode" clip-path="url(#clip0_0_223)">
<path id="Vector" d="M5.47223 25.3581C6.93192 25.5769 7.07854 24.7365 8.11132 25.1827C8.34418 25.2845 8.42611 26.0101 8.28165 26.2332L4.96554 31.3603C4.46101 32.1379 3.63953 31.0917 3.36139 30.7256L0.137992 26.4845C-0.0582152 26.2267 -0.0344979 25.5466 0.137992 25.3711C0.912038 24.5697 1.68177 25.696 2.84823 25.3256C3.20184 15.8513 8.38084 7.72202 16.5159 3.1213C23.9717 -1.09603 32.9326 -1.0852 40.2591 3.44621C45.2117 6.50903 48.711 11.3199 50.4359 16.8715C50.6451 17.5451 50.1535 18.3271 49.7029 18.4895C49.0625 18.7191 48.1677 18.4852 47.937 17.7877C46.7382 14.1899 44.8926 10.9343 42.1241 8.35451C36.8653 3.45271 29.7156 1.52924 22.7665 3.48087C15.4551 5.5343 9.76075 10.9495 6.96642 17.9762C5.9897 20.4325 5.47007 22.709 5.47654 25.3603L5.47223 25.3581Z" fill="white"/>
<path id="Vector_2" d="M7.8418 36.8123C8.83793 38.5711 9.87718 40.1004 11.2269 41.5711C18.3399 49.3343 29.9183 50.4715 38.6269 44.4087C41.3695 42.5004 43.6506 40.1805 45.2957 37.3278C46.777 34.7588 47.965 32.1834 48.2367 29.2289L46.432 29.5754C46.2099 29.6188 45.6321 29.4195 45.5049 29.2527C45.3518 29.0534 45.3992 28.5379 45.5825 28.3083L49.2522 23.6751C49.4118 23.4758 49.7891 23.1639 50.0069 23.1249C50.2699 23.0773 50.7292 23.4758 50.8973 23.7357L53.7952 28.226C53.9439 28.4556 54.0388 28.9581 53.9806 29.1877C53.9094 29.4628 53.2238 29.6751 52.9263 29.6339L50.975 29.3675C49.6834 37.9278 44.1444 45.4202 36.2336 48.9119C24.4741 54.1018 10.9876 49.33 5.40539 37.7155C5.12509 37.1329 5.6361 36.3119 6.1126 36.1191C6.75512 35.857 7.41921 36.0693 7.83965 36.8123H7.8418Z" fill="white"/>
<path id="Vector_3" d="M33.1611 43.8672L19.75 43.826C17.4667 43.8195 16.5072 41.857 16.5094 39.8903L16.5525 14.3762C16.5547 12.5588 17.8979 11.1466 19.6918 11.0708L22.3503 10.9581L22.3935 9.15812C22.4193 8.01661 23.1502 7.04838 24.3598 7.04621L29.7803 7.03755C30.8217 7.03755 31.4793 7.99061 31.4836 8.93069L31.4944 10.9711L33.6937 11.0426C35.7312 11.1076 36.958 12.6433 36.9602 14.6014L36.9774 39.8729C36.9774 42.1884 35.6256 43.878 33.1633 43.8693L33.1611 43.8672ZM29.9032 10.9949L29.8062 8.56895L24.1248 8.57545L23.9351 11.0361L29.9032 10.9971V10.9949ZM33.0619 42.3097C34.3685 42.3097 35.4164 41.5841 35.4164 40.0917L35.4229 14.3762C35.4229 13.5119 34.7415 12.5892 33.8295 12.587L20.1252 12.5502C18.8898 12.5458 18.0812 13.3191 18.0812 14.6079L18.1028 39.8968C18.1028 41.1596 18.7022 42.3162 20.1338 42.3162L33.0598 42.3119L33.0619 42.3097Z" fill="white"/>
<path id="Vector_4" d="M33.2017 32.3166L20.0343 32.335L20.0391 35.7748L33.2065 35.7563L33.2017 32.3166Z" fill="white"/>
<path id="Vector_5" d="M33.1654 36.9552H20.0411V40.4318H33.1654V36.9552Z" fill="white"/>
<path id="Vector_6" d="M33.1762 27.6368H20.0972V31.0224H33.1762V27.6368Z" fill="white"/>
<path id="Vector_7" d="M25.3236 25.8693C25.2309 25.9949 24.8536 26.1921 24.7609 26.2505C24.6229 26.335 24.0709 25.9321 24.1464 25.7329L25.688 21.6412L23.4888 21.1365L27.76 14.7682C27.9174 14.5343 28.4177 14.2484 28.6095 14.3307C28.8402 14.4282 28.9243 14.9545 28.8252 15.2209L27.2857 19.3495C28.3745 19.4469 28.8338 19.4404 29.8644 19.7718L25.3236 25.8736V25.8693Z" fill="white"/>
</g>
<defs>
<clipPath id="clip0_0_223">
<rect width="54" height="51" fill="white"/>
</clipPath>
</defs>
</svg>
